IKResults
version=1
nRows=17
nColumns=40
inDegrees=yes

Units are S.I. units (second, meters, Newtons, ...)
Angles are in degrees.

endheader
time	pelvis_tilt	pelvis_list	pelvis_rotation	pelvis_tx	pelvis_ty	pelvis_tz	hip_flexion_r	hip_adduction_r	hip_rotation_r	knee_angle_r	knee_angle_r_beta	ankle_angle_r	subtalar_angle_r	mtp_angle_r	hip_flexion_l	hip_adduction_l	hip_rotation_l	knee_angle_l	knee_angle_l_beta	ankle_angle_l	subtalar_angle_l	mtp_angle_l	lumbar_extension	lumbar_bending	lumbar_rotation	arm_flex_r	arm_add_r	arm_rot_r	elbow_flex_r	pro_sup_r	wrist_flex_r	wrist_dev_r	arm_flex_l	arm_add_l	arm_rot_l	elbow_flex_l	pro_sup_l	wrist_flex_l	wrist_dev_l
      1.09000000	     15.79229489	     -1.91016594	      1.36974914	     -0.23653245	      0.94148635	      0.97694511	      6.46854126	      0.57712158	     -8.06947374	    -27.00930944	     -0.47140138	      2.52342328	     -7.81028756	      9.41331014	    -24.14370554	     -0.58859249	     17.34944640	     -9.71100015	     -0.16948893	     11.90616059	     -4.39601337	     -4.96526383	    -22.41003832	      1.95248844	     -4.58437571	    -10.89768410	    -10.72957805	      6.45756969	     19.74792211	     89.95437384	      0.00000000	      0.00000000	     17.66380242	     12.90048877	      5.94328111	     35.22512154	     89.95437384	      0.00000000	      0.00000000
      1.10000000	     15.34569925	     -1.93747211	      1.41289453	     -0.22696592	      0.93942833	      0.97702746	      7.07695231	      0.47702667	     -9.28344097	    -24.38793804	     -0.42564982	      2.41465254	     -6.17980657	      9.04996871	    -24.24698813	     -0.52692083	     17.32299353	     -9.85637132	     -0.17202613	     12.48873417	     -4.26355938	     -4.96293166	    -21.94916036	      2.00994090	     -4.68660240	    -11.46109388	    -10.71043368	      6.11349992	     19.86457591	     89.95437384	      0.00000000	      0.00000000	     17.90700678	     13.03433857	      6.13385987	     36.89477747	     89.95437384	      0.00000000	      0.00000000
      1.11000000	     15.85331330	     -2.54439044	      2.07362092	     -0.21680341	      0.93871678	      0.97682959	      6.26032977	      0.86833570	    -12.23675771	    -21.36886125	     -0.37295699	      2.43979986	     -2.45459258	      7.72056986	    -25.34185517	      0.44022015	     16.93494042	    -10.15725772	     -0.17727759	     13.08696692	     -4.08077819	     -5.08365798	    -22.46713701	      2.84408884	     -5.03538563	    -11.86940912	    -10.59875897	      5.56835941	     19.76878613	     89.95437384	      0.00000000	      0.00000000	     18.06812154	     13.09914681	      6.34502247	     38.91684648	     89.95437384	      0.00000000	      0.00000000
      1.12000000	     15.63414758	     -2.31776535	      2.31023933	     -0.20663976	      0.93665742	      0.97643734	      6.87100606	     -0.03841219	    -16.09576071	    -19.68600812	     -0.34358566	      1.19831335	      1.89884512	     -8.32538597	    -25.79171609	      0.24037281	     16.18283167	    -10.13201725	     -0.17683706	     13.46747727	     -3.32577742	     -6.19783956	    -22.17139248	      2.71710274	     -5.38396111	    -12.46026036	    -10.56829590	      5.27430558	     19.98293000	     89.95437384	      0.00000000	      0.00000000	     18.16695500	     13.26189933	      6.30999400	     40.69734804	     89.95437384	      0.00000000	      0.00000000
      1.13000000	     15.48614217	     -2.71473788	      2.60045673	     -0.19667453	      0.93480110	      0.97692941	      7.08049672	      0.34178246	    -18.35945529	    -17.55286726	     -0.30635533	      1.19202701	      4.54263652	     -8.81550395	    -26.04847207	      0.90463987	     16.19427719	    -10.64638942	     -0.18581455	     13.93911764	     -3.36805049	     -6.31126813	    -21.99340959	      3.18431519	     -5.53024490	    -12.91315702	    -10.50656821	      4.97814744	     20.11503048	     89.95437384	      0.00000000	      0.00000000	     18.28870421	     13.36647727	      6.43215391	     42.45265945	     89.95437384	      0.00000000	      0.00000000
      1.14000000	     15.18448204	     -3.08300301	      2.45931323	     -0.18664180	      0.93261352	      0.97797977	      7.62421955	      0.83231382	    -19.44870629	    -15.89357327	     -0.27739518	      1.50931061	      6.60890191	     -9.20169706	    -26.24802241	      1.30674323	     16.21717576	    -11.04961759	     -0.19285221	     14.69314368	     -3.30784318	     -6.38997164	    -21.66484677	      3.49637320	     -5.40599679	    -13.21590059	    -10.45801564	      4.70552246	     20.05533367	     89.95437384	      0.00000000	      0.00000000	     18.18673178	     13.54263208	      6.45588177	     44.38098494	     89.95437384	      0.00000000	      0.00000000
      1.15000000	     15.13751247	     -3.33227351	      2.89530034	     -0.17606498	      0.93070045	      0.97809277	      8.10607134	      0.58279992	    -23.51630046	    -15.27827204	     -0.26665615	      1.71781492	     11.95958580	    -13.59777258	    -26.61910003	      1.88243049	     16.12937187	    -11.58355872	     -0.20217124	     15.06913210	     -3.44155029	     -7.28464755	    -21.50058773	      3.88380812	     -5.79012665	    -13.62098778	    -10.42026195	      4.50319649	     20.11989693	     89.95437384	      0.00000000	      0.00000000	     18.12204899	     13.63230691	      6.61805484	     46.06244681	     89.95437384	      0.00000000	      0.00000000
      1.16000000	     14.96101273	     -3.77231916	      3.10040983	     -0.16587432	      0.92874873	      0.97882842	      8.42425118	      1.20295913	    -24.60806939	    -13.95924174	     -0.24363473	      2.03855106	     13.03185148	    -13.92127595	    -26.84903795	      2.55331246	     16.01878906	    -12.14830783	     -0.21202797	     15.64963305	     -3.27521211	     -7.35783112	    -21.28013183	      4.37651649	     -5.93534502	    -13.87649406	    -10.37862999	      4.31518729	     20.12702981	     89.95437384	      0.00000000	      0.00000000	     18.05899457	     13.73010999	      6.74305977	     47.68641704	     89.95437384	      0.00000000	      0.00000000
      1.17000000	     14.83693574	     -4.23212574	      3.28846268	     -0.15538385	      0.92686793	      0.97952884	      8.68056943	      1.80970434	    -25.61833848	    -12.98014000	     -0.22654618	      2.29259592	     14.05227940	    -14.27800795	    -27.19282161	      3.22010291	     15.90287961	    -12.63677988	     -0.22055342	     16.03821980	     -3.18806473	     -7.45018473	    -21.07974455	      4.90335108	     -6.03941708	    -14.15441702	    -10.39473748	      4.26478025	     20.15376041	     89.95437384	      0.00000000	      0.00000000	     17.91092206	     13.74180448	      6.91921295	     49.29628776	     89.95437384	      0.00000000	      0.00000000
      1.18000000	     14.53730678	     -4.32660241	      3.10409876	     -0.14497029	      0.92479274	      0.98025960	      9.29833546	      1.98075850	    -25.88555132	    -12.67562716	     -0.22123143	      2.63384351	     13.96794793	    -14.21087229	    -27.46455670	      3.28195013	     15.80073298	    -12.90680130	     -0.22526618	     16.16313522	     -3.12647167	     -7.41989997	    -20.72501861	      4.96235688	     -5.78867091	    -14.44345157	    -10.40262892	      4.25186171	     20.13540431	     89.95437384	      0.00000000	      0.00000000	     18.00641443	     13.62035916	      6.94263760	     50.36757461	     89.95437384	      0.00000000	      0.00000000
      1.19000000	     14.40002499	     -4.82811630	      3.24713434	     -0.13390252	      0.92289307	      0.98112011	      9.53544230	      2.64334747	    -25.89084374	    -12.40610531	     -0.21652739	      3.15878707	     14.25494497	    -14.26758810	    -27.88222669	      3.96786533	     15.67868528	    -13.33130259	     -0.23267512	     16.64915928	     -2.84145279	     -7.42033436	    -20.46381055	      5.52049760	     -6.01344518	    -14.63765838	    -10.42225538	      4.00278163	     20.24338082	     89.95437384	      0.00000000	      0.00000000	     17.43774585	     13.70205636	      7.27081564	     52.17640924	     89.95437384	      0.00000000	      0.00000000
      1.20000000	     14.28970098	     -5.08459500	      3.46823231	     -0.12282275	      0.92110976	      0.98164011	      9.77196409	      2.94771320	    -25.89575999	    -12.58041753	     -0.21956971	      3.26907323	     13.94303117	    -14.13224015	    -28.19948407	      4.46452687	     15.37464964	    -13.97125281	     -0.24384436	     16.82762341	     -2.59696287	     -7.39464830	    -20.21502754	      5.86111827	     -6.22400658	    -14.80413166	    -10.42320577	      3.87305887	     20.18640988	     89.95437384	      0.00000000	      0.00000000	     17.18667290	     13.61732760	      7.49695444	     53.35915579	     89.95437384	      0.00000000	      0.00000000
      1.21000000	     14.09408830	     -5.34032195	      3.53494291	     -0.11150541	      0.91926303	      0.98236915	     10.10862926	      3.23731075	    -25.55553324	    -13.17374683	     -0.22992526	      3.58147143	     13.36298538	    -13.96254606	    -28.48919461	      4.86805280	     15.07711775	    -14.53391960	     -0.25366475	     16.88495513	     -2.36039951	     -7.33505359	    -19.84686198	      6.16422747	     -6.29810309	    -14.97911775	    -10.44180342	      3.87100090	     20.13916278	     89.95437384	      0.00000000	      0.00000000	     16.87994309	     13.53793104	      7.60279287	     54.34774621	     89.95437384	      0.00000000	      0.00000000
      1.22000000	     13.87163973	     -5.49409485	      3.57469001	     -0.10010621	      0.91744748	      0.98321489	     10.48865694	      3.41752166	    -24.83147561	    -14.11752479	     -0.24639729	      3.79727329	     12.59489913	    -13.68190971	    -28.67292811	      5.17216497	     14.56885122	    -15.25518006	     -0.26625312	     16.70874045	     -2.16519684	     -7.21254727	    -19.45972582	      6.34139227	     -6.28558421	    -15.20397233	    -10.44243657	      3.86055545	     20.16004786	     89.95437384	      0.00000000	      0.00000000	     16.64079448	     13.38748497	      7.67959441	     55.14322566	     89.95437384	      0.00000000	      0.00000000
      1.23000000	     13.49416620	     -5.58318921	      3.63395017	     -0.08836521	      0.91553744	      0.98403226	     10.91765667	      3.71310491	    -23.16895191	    -15.12141409	     -0.26391846	      4.51290358	      9.81035542	    -12.99706350	    -28.77473182	      5.33353267	     13.60324070	    -15.81401160	     -0.27600657	     16.96111049	     -0.92782968	     -7.31722649	    -18.84144761	      6.43942742	     -6.55088498	    -15.22863560	    -10.49341360	      4.28650069	     19.87958050	     89.95437384	      0.00000000	      0.00000000	     16.08215989	     13.25741740	      8.03884393	     56.00465707	     89.95437384	      0.00000000	      0.00000000
      1.24000000	     13.27257874	     -5.80507647	      3.85054313	     -0.07597156	      0.91383818	      0.98486636	     11.10459530	      4.03113405	    -22.23375781	    -16.29484752	     -0.28439874	      4.84554694	      8.81864473	    -12.66972093	    -28.94904732	      5.80973289	     13.02061278	    -16.63050741	     -0.29025711	     16.70730304	     -0.53202225	     -7.18548021	    -18.29906600	      6.71675722	     -6.75495696	    -15.43035759	    -10.46367116	      4.15819909	     19.82655624	     89.95437384	      0.00000000	      0.00000000	     15.60281238	     13.15515121	      7.96772008	     56.57302972	     89.95437384	      0.00000000	      0.00000000
      1.25000000	     13.02080031	     -6.05385567	      4.09901729	     -0.06392690	      0.91251804	      0.98582673	     11.26711648	      4.62516960	    -20.99561542	    -17.16758453	     -0.29963087	      3.32827730	      5.05208339	    -11.47304492	    -29.04880955	      6.20187979	     11.61717894	    -17.40115734	     -0.30370749	     16.63222502	      1.11227716	     -7.14691993	    -17.77394372	      7.03127204	     -6.98343540	    -15.45171490	    -10.35217230	      3.75662720	     19.56817333	     89.95437384	      0.00000000	      0.00000000	     15.14379445	     12.94391867	      8.17281260	     56.93863022	     89.95437384	      0.00000000	      0.00000000
